<svg version="1.1" id="Layer_1" xmlns="http://www.w3.org/2000/svg" x="0" y="0" viewBox="0 0 558.59 98.68" style="enable-background:new 0 0 558.59 98.68" xml:space="preserve"><style>.st3{fill:#145fe2}.st4{fill:#04092d}</style><path d="m94.48 44.4-6.6-11.43H58.09L52.28 22.9h29.79l-6.6-11.43a9.89 9.89 0 0 0-8.56-4.94H28.89a9.9 9.9 0 0 0-4.94 1.32L47.9 49.34h47.9c0-1.71-.44-3.41-1.32-4.94z" style="fill:#15c"/><path d="m47.9 49.34-9.45 16.37h27.18l-5.81 10.06H32.64l-8.69 15.05a9.92 9.92 0 0 0 4.94 1.32h38.02c3.53 0 6.8-1.88 8.56-4.94l19.01-32.92a9.91 9.91 0 0 0 1.32-4.94H47.9z" style="fill:#121cc9"/><path class="st3" d="M47.9 49.34 23.95 7.86a9.82 9.82 0 0 0-3.62 3.62l-3.56 6.16-3.03 5.24 24.7 42.83 9.46-16.37zM1.32 44.4a9.87 9.87 0 0 0 0 9.89l3.56 6.16 15.45 26.76a9.82 9.82 0 0 0 3.62 3.62l8.69-15.05-24.7-42.84L1.32 44.4z"/><g><path class="st4" d="M122.91 60.43c.17 2.98 2.28 5.86 6.83 5.86 3.41 0 5.08-1.84 5.08-3.76 0-1.58-1.05-2.89-4.29-3.59l-4.99-1.14c-9.28-2.01-12.95-7.26-12.95-13.39 0-7.96 7-14.44 16.72-14.44 12.6 0 16.98 7.88 17.42 12.95l-11.03 2.01c-.35-2.89-2.19-5.34-6.21-5.34-2.54 0-4.73 1.49-4.73 3.76 0 1.84 1.49 2.89 3.41 3.24l5.78 1.14c9.01 1.84 13.39 7.26 13.39 13.65 0 7.44-5.69 14.7-17.33 14.7-13.65 0-18.03-8.84-18.38-13.65l11.28-2zM156.95 74.79v-43.5h12.69v4.99c2.19-3.85 7.79-6.3 12.52-6.3 6.21 0 10.68 2.54 12.87 6.83 3.41-4.9 7.61-6.83 13.48-6.83 8.23 0 16.1 4.81 16.1 16.63v28.18h-12.87V49.58c0-4.11-2.19-7.35-6.91-7.35s-7.26 3.59-7.26 7.44v25.12h-13.13V49.58c0-4.11-2.19-7.35-7-7.35-4.64 0-7.18 3.59-7.18 7.53v25.03h-13.31zM246.66 49.67l10.24-1.58c2.36-.35 3.15-1.49 3.15-2.98 0-2.54-2.19-4.73-6.39-4.73-4.64 0-7.18 3.15-7.44 6.39l-11.55-2.36c.53-6.21 6.3-14.44 19.08-14.44 14.09 0 19.25 7.88 19.25 16.8v21.27c0 3.41.44 6.3.53 6.74h-11.99c-.09-.35-.44-1.93-.44-4.9-2.28 3.68-6.48 6.13-12.25 6.13-9.54 0-15.05-6.3-15.05-13.22 0-7.7 5.69-12.07 12.86-13.12zm13.4 8.05v-1.93l-8.23 1.31c-2.8.44-4.9 1.75-4.9 4.81 0 2.28 1.49 4.46 5.16 4.46 3.94.02 7.97-1.91 7.97-8.65zM312.22 44.42a18.09 18.09 0 0 0-4.2-.44c-5.34 0-10.15 3.15-10.15 11.82v18.99h-13.3v-43.5h12.87v5.86c2.28-4.9 7.79-6.3 11.29-6.3 1.31 0 2.62.17 3.5.44v13.13zM337.34 31.29h8.49v11.64h-8.49v16.28c0 3.59 1.93 4.55 4.81 4.55 1.4 0 2.71-.26 3.5-.44v11.03c-.53.26-2.71 1.23-6.92 1.23-9.01 0-14.53-5.34-14.53-14V42.93h-7.7V31.29h2.19c4.55 0 6.74-3.06 6.74-7.09v-5.6h11.9v12.69zM360.7 61.22c.53 4.38 3.85 7.88 9.8 7.88 4.64 0 7.18-2.63 7.18-5.6 0-2.63-1.93-4.64-5.43-5.43l-7.18-1.58c-6.56-1.4-10.5-5.86-10.5-11.82 0-7.18 6.74-13.3 14.97-13.3 11.55 0 15.14 7.53 16.02 11.29l-7.26 2.71c-.35-2.19-2.1-7-8.75-7-4.2 0-7 2.71-7 5.6 0 2.54 1.58 4.38 4.81 5.08l6.83 1.49c7.62 1.66 11.64 6.3 11.64 12.52 0 5.95-4.99 13.04-15.4 13.04-11.55 0-16.45-7.44-17.15-12.25l7.42-2.63zM433.7 62.8c-2.36 7.44-9.1 13.3-18.91 13.3-11.29 0-21.18-8.23-21.18-22.49 0-13.22 9.54-22.23 20.13-22.23 12.95 0 20.22 8.93 20.22 22.06 0 1.05-.09 2.1-.18 2.63H402.1c.17 7.53 5.6 12.78 12.69 12.78 6.83 0 10.24-3.76 11.82-8.49l7.09 2.44zm-8.32-13.39c-.17-6.04-4.11-10.77-11.55-10.77-6.92 0-11.12 5.34-11.47 10.77h23.02zM444.29 74.79V11.42h8.23v63.37h-8.23zM465.82 74.79V11.42h8.23v63.37h-8.23zM524.63 62.8c-2.36 7.44-9.1 13.3-18.91 13.3-11.29 0-21.18-8.23-21.18-22.49 0-13.22 9.54-22.23 20.13-22.23 12.95 0 20.22 8.93 20.22 22.06 0 1.05-.09 2.1-.18 2.63h-31.68c.17 7.53 5.6 12.78 12.69 12.78 6.83 0 10.24-3.76 11.82-8.49l7.09 2.44zm-8.31-13.39c-.17-6.04-4.11-10.77-11.55-10.77-6.92 0-11.12 5.34-11.47 10.77h23.02zM558.59 41a26.39 26.39 0 0 0-3.59-.26c-6.92 0-11.55 3.68-11.55 12.95v21.09h-8.23v-42.1h8.05v7.35c3.06-6.48 8.31-8.05 12.6-8.05 1.14 0 2.28.17 2.71.26V41z"/></g></svg>